<svg width="133" height="26" viewBox="0 0 133 26" fill="none" xmlns="http://www.w3.org/2000/svg">
<path fill-rule="evenodd" clip-rule="evenodd" d="M0 0.501953V25.7321H2.94202V14.1596H5.62094C8.07126 14.2473 9.62534 16.1764 10.2831 19.9467C10.703 22.5911 11.0226 24.5195 11.2419 25.7321H14.4832C14.3725 25.3363 14.185 24.4329 13.9208 23.0219L13.5245 21.2031C13.0377 18.425 12.4424 16.4077 11.7385 15.1513C11.164 14.226 10.2267 13.5314 8.92642 13.0677C12.5202 12.2301 14.3171 10.2243 14.3171 7.05041C14.3171 2.68477 11.8153 0.501953 6.81156 0.501953H0ZM5.68674 11.4807H2.94202V3.18087H6.34784C9.65441 3.18087 11.3077 4.47071 11.3077 7.05041C11.3077 10.004 9.43404 11.4807 5.68674 11.4807Z" fill="#1457FE"/>
<path fill-rule="evenodd" clip-rule="evenodd" d="M31.4168 13.0016C31.4168 4.36024 29.0142 0.0395508 24.2089 0.0395508C19.226 0.0395508 16.7346 4.39312 16.7346 13.1003C16.7346 21.6759 19.1816 25.9637 24.0757 25.9637C28.9698 25.9637 31.4168 21.643 31.4168 13.0016ZM19.7441 13.0345C19.7452 6.24485 21.1671 2.85002 24.0099 2.85002C26.9416 2.85002 28.4074 6.27774 28.4074 13.1332C28.4074 19.8132 26.9635 23.1532 24.0757 23.1532C21.1879 23.1532 19.7441 19.7803 19.7441 13.0345Z" fill="#1457FE"/>
<path fill-rule="evenodd" clip-rule="evenodd" d="M33.864 25.5015V0.504883H39.4553C42.5404 0.504883 44.6235 1.01194 45.7044 2.02606C46.3505 2.59572 46.8653 3.29871 47.2134 4.08656C47.5615 4.87441 47.7345 5.72838 47.7206 6.58958C47.7206 9.50037 46.3316 11.4623 43.5535 12.4753C46.7504 13.3568 48.3488 15.4612 48.3488 18.7886C48.3488 20.7499 47.6762 22.3945 46.331 23.7221C45.0965 24.9127 43.19 25.5081 40.6114 25.5081L33.864 25.5015ZM36.806 11.1827H39.5507C43.0338 11.1827 44.7753 9.72786 44.7753 6.81817C44.7753 5.42801 44.3368 4.44678 43.4597 3.87449C42.7756 3.43595 41.563 3.21668 39.822 3.21668H36.8126L36.806 11.1827ZM40.0802 22.7897H36.806V13.8863H39.7497C43.5189 13.8918 45.4035 15.4266 45.4035 18.4909C45.4035 21.3568 43.6291 22.7897 40.0802 22.7897Z" fill="#1457FE"/>
<path fill-rule="evenodd" clip-rule="evenodd" d="M65.2773 13.0016C65.2773 4.36024 62.8746 0.0395508 58.0694 0.0395508C53.0876 0.0395508 50.5967 4.39312 50.5967 13.1003C50.5978 21.6759 53.0443 25.9637 57.9362 25.9637C62.8302 25.9637 65.2773 21.643 65.2773 13.0016ZM53.6061 13.0345C53.6061 6.24485 55.0275 2.85002 57.8704 2.85002C60.8031 2.85002 62.2694 6.27774 62.2694 13.1332C62.2672 19.8132 60.8228 23.1532 57.9362 23.1532C55.0495 23.1532 53.6061 19.7803 53.6061 13.0345Z" fill="#1457FE"/>
<path d="M81.7785 7.34604H78.6374C78.3085 4.32671 77.2171 2.81705 75.3632 2.81705C72.1444 2.81705 70.5355 6.32206 70.5366 13.3321C70.5366 19.8783 72.0797 23.152 75.1659 23.1531C77.1711 23.1531 78.4823 21.4669 79.0996 18.0946H82.2422C81.3378 23.3406 79.0672 25.9636 75.4306 25.9636C70.1605 25.9636 67.526 21.6878 67.5271 13.1364C67.5271 9.25642 68.1663 6.10388 69.4446 3.67878C70.723 1.22626 72.7068 0 75.3961 0C79.1226 0 81.25 2.44868 81.7785 7.34604Z" fill="#1457FE"/>
<path fill-rule="evenodd" clip-rule="evenodd" d="M99.1378 13.0016C99.1378 4.36024 96.7346 0.0395508 91.9283 0.0395508C86.9476 0.0395508 84.4567 4.39312 84.4556 13.1003C84.4556 21.6759 86.9026 25.9637 91.7967 25.9637C96.6908 25.9637 99.1378 21.643 99.1378 13.0016ZM87.4651 13.0345C87.464 6.24485 88.8859 2.85002 91.7309 2.85002H91.7326C94.6642 2.85002 96.1295 6.27774 96.1284 13.1332C96.1284 19.8132 94.6845 23.1532 91.7967 23.1532C88.9089 23.1532 87.4651 19.7803 87.4651 13.0345Z" fill="#1457FE"/>
<path fill-rule="evenodd" clip-rule="evenodd" d="M101.586 0.504883V25.5015L106.982 25.5031C109.936 25.5031 112.097 24.5663 113.465 22.6927C115.206 20.3333 116.076 17.1035 116.076 13.0032C116.076 4.67098 112.891 0.504883 106.52 0.504883H101.586ZM106.778 22.6943H104.528V3.31536H106.711C110.944 3.31536 113.06 6.51229 113.06 12.9062C113.06 16.3443 112.564 18.8352 111.572 20.3788C110.58 21.9225 108.982 22.6943 106.778 22.6943Z" fill="#1457FE"/>
<path d="M118.517 25.5015V0.504883H133V3.31536H121.461V11.3143H131.148V14.1264H121.461V22.6943H133V25.5048L118.517 25.5015Z" fill="#1457FE"/>
</svg>
